<svg xmlns="http://www.w3.org/2000/svg" width="26.615" height="26.615" viewBox="0 0 26.615 26.615">
  <g id="Group_2915" data-name="Group 2915" transform="translate(-5 -5)">
    <g id="Group_2916" data-name="Group 2916" transform="translate(0.321 0.308)">
      <g id="Group_88" data-name="Group 88" transform="translate(-638.5 -58)">
        <path id="Ellipse_117" data-name="Ellipse 117" d="M12.308-1A13.308,13.308,0,0,1,25.615,12.308,13.308,13.308,0,0,1,2.9,21.718,13.308,13.308,0,0,1,2.9,2.9,13.221,13.221,0,0,1,12.308-1Zm0,24.615A11.308,11.308,0,1,0,1,12.308,11.32,11.32,0,0,0,12.308,23.615Z" transform="translate(644.179 63.692)" fill="#2d2d2d"/>
      </g>
    </g>
    <path id="Line_48721" data-name="Line 48721" d="M0,12.5a1,1,0,0,1-.724-.31A1,1,0,0,1-.69,10.776l12.07-11.5a1,1,0,0,1,1.414.034A1,1,0,0,1,12.76.724L.69,12.224A1,1,0,0,1,0,12.5Z" transform="translate(12.43 12.5)" fill="#231f20"/>
    <path id="Ellipse_79" data-name="Ellipse 79" d="M2.1-1A3.1,3.1,0,1,1-1,2.1,3.105,3.105,0,0,1,2.1-1Zm0,4.2A1.1,1.1,0,1,0,1,2.1,1.1,1.1,0,0,0,2.1,3.2Z" transform="translate(12.43 12.5)" fill="#2d2d2d"/>
    <path id="Ellipse_10530" data-name="Ellipse 10530" d="M2.1-1A3.1,3.1,0,1,1-1,2.1,3.105,3.105,0,0,1,2.1-1Zm0,4.2A1.1,1.1,0,1,0,1,2.1,1.1,1.1,0,0,0,2.1,3.2Z" transform="translate(20.296 19.796)" fill="#2d2d2d"/>
  </g>
</svg>
