<svg xmlns="http://www.w3.org/2000/svg" width="29.694" height="28.494" viewBox="0 0 29.694 28.494">
  <g id="Group_274" data-name="Group 274" transform="translate(923.847 -220.753)">
    <path id="Path_840" data-name="Path 840" d="M12.11,13.647A3.416,3.416,0,1,1,8.693,10.23,3.417,3.417,0,0,1,12.11,13.647Z" transform="translate(-923.847 220.753)" fill="none" stroke="#231f20" stroke-linecap="round" stroke-linejoin="round" stroke-width="2"/>
    <path id="Path_841" data-name="Path 841" d="M1,27.494a7.693,7.693,0,0,1,15.386,0" transform="translate(-923.847 220.753)" fill="none" stroke="#231f20" stroke-linecap="round" stroke-linejoin="round" stroke-width="2"/>
    <path id="Path_842" data-name="Path 842" d="M24.417,4.417A3.417,3.417,0,1,1,21,1,3.417,3.417,0,0,1,24.417,4.417Z" transform="translate(-923.847 220.753)" fill="none" stroke="#231f20" stroke-linecap="round" stroke-linejoin="round" stroke-width="2"/>
    <path id="Path_843" data-name="Path 843" d="M15.255,13.148a7.693,7.693,0,0,1,13.439,5.115" transform="translate(-923.847 220.753)" fill="none" stroke="#231f20" stroke-linecap="round" stroke-linejoin="round" stroke-width="2"/>
  </g>
</svg>
