<svg xmlns="http://www.w3.org/2000/svg" width="25.696" height="28.033" viewBox="0 0 25.696 28.033">
  <g id="Group_2915" data-name="Group 2915" transform="translate(-7.077 -4.791)">
    <g id="Group_2915-2" data-name="Group 2915">
      <g id="Group_2918" data-name="Group 2918" transform="translate(-1839.344 -2709.209)">
        <line id="Line_48722" data-name="Line 48722" y1="9.655" transform="translate(1864.875 2715)" fill="none" stroke="#2d2d2d" stroke-linecap="round" stroke-width="2"/>
        <line id="Line_48727" data-name="Line 48727" x2="11.325" transform="translate(1850.654 2718.862)" fill="none" stroke="#2d2d2d" stroke-linecap="round" stroke-width="2"/>
        <line id="Line_48728" data-name="Line 48728" x2="11.325" transform="translate(1850.654 2722.724)" fill="none" stroke="#2d2d2d" stroke-linecap="round" stroke-width="2"/>
        <line id="Line_48729" data-name="Line 48729" x2="4.567" transform="translate(1850.654 2726.585)" fill="none" stroke="#2d2d2d" stroke-linecap="round" stroke-width="2"/>
        <line id="Line_48730" data-name="Line 48730" x2="4.567" transform="translate(1850.654 2737.206)" fill="none" stroke="#2d2d2d" stroke-linecap="round" stroke-width="2"/>
        <line id="Line_48723" data-name="Line 48723" x1="17.378" transform="translate(1847.497 2715)" fill="none" stroke="#2d2d2d" stroke-linecap="round" stroke-width="2"/>
        <line id="Line_48726" data-name="Line 48726" x1="7.724" transform="translate(1847.497 2740.584)" fill="none" stroke="#2d2d2d" stroke-linecap="round" stroke-width="2"/>
        <line id="Line_48725" data-name="Line 48725" y1="25.585" transform="translate(1847.421 2715)" fill="none" stroke="#2d2d2d" stroke-linecap="round" stroke-width="2"/>
        <path id="Path_48612" data-name="Path 48612" d="M21.724,14a7.724,7.724,0,1,0,7.724,7.724A7.724,7.724,0,0,0,21.724,14Zm5.706,6.758H25.543a11.614,11.614,0,0,0-1.176-4.183,5.8,5.8,0,0,1,3.062,4.183Zm-7.583,0a9.668,9.668,0,0,1,1.877-4.813A9.666,9.666,0,0,1,23.6,20.758ZM23.6,22.689A9.664,9.664,0,0,1,21.724,27.5a9.666,9.666,0,0,1-1.878-4.813Zm-4.521-6.113A11.611,11.611,0,0,0,17.9,20.758H16.018a5.8,5.8,0,0,1,3.062-4.182Zm-3.063,6.113H17.9a11.611,11.611,0,0,0,1.176,4.182,5.8,5.8,0,0,1-3.062-4.182Zm8.349,4.182a11.609,11.609,0,0,0,1.176-4.182h1.886a5.8,5.8,0,0,1-3.062,4.182Z" transform="translate(1842.669 2712.585)" fill="#2d2d2d"/>
      </g>
    </g>
  </g>
</svg>
