<svg xmlns="http://www.w3.org/2000/svg" width="24.164" height="26.284" viewBox="0 0 24.164 26.284">
  <path id="Path_48607" data-name="Path 48607" d="M16.842,1.629l6.85,3.955a5.232,5.232,0,0,1,2.616,4.531v7.91a5.232,5.232,0,0,1-2.616,4.531l-6.85,3.955a5.232,5.232,0,0,1-5.232,0l-6.85-3.955a5.232,5.232,0,0,1-2.616-4.531v-7.91A5.232,5.232,0,0,1,4.759,5.584l6.85-3.955A5.232,5.232,0,0,1,16.842,1.629ZM12.664,3.041l-.182.1L5.631,7.094A3.488,3.488,0,0,0,3.893,9.919l-.005.2v7.91a3.488,3.488,0,0,0,1.577,2.918l.167.1L12.482,25a3.488,3.488,0,0,0,3.306.1l.182-.1,6.85-3.955a3.488,3.488,0,0,0,1.738-2.825l.005-.2v-7.91A3.488,3.488,0,0,0,22.987,7.2l-.167-.1L15.97,3.139a3.488,3.488,0,0,0-3.306-.1ZM20.347,10.2a.872.872,0,0,1-.361,1.179l-4.9,2.6v5.9a.872.872,0,0,1-1.744,0v-5.9l-4.9-2.6a.872.872,0,0,1,.819-1.54l4.952,2.632,4.952-2.632A.872.872,0,0,1,20.347,10.2Z" transform="translate(-2.144 -0.928)"/>
</svg>
